<svg xmlns="http://www.w3.org/2000/svg" width="512" height="512" viewBox="0 0 512 512" version="1.1">
	<path d="M 0 256.002 L 0 512.004 256.250 511.752 L 512.500 511.500 512.752 255.750 L 513.004 0 256.502 0 L 0 0 0 256.002 M 0.492 256.500 C 0.492 397.300, 0.608 454.751, 0.750 384.170 C 0.892 313.588, 0.892 198.388, 0.750 128.170 C 0.608 57.951, 0.492 115.700, 0.492 256.500 M 303 57.440 C 269.363 62.309, 252.533 71.305, 214.155 104.931 C 191.094 125.138, 182.796 130.892, 161 141.789 C 136.381 154.097, 127.883 159.174, 112.204 170.941 C 80.476 194.752, 57.512 224.292, 47.597 254.049 C 38.064 282.657, 41.067 312.559, 55.776 335.500 C 63.668 347.809, 87.270 370.284, 91.580 369.594 C 92.636 369.425, 92.914 369.485, 92.197 369.727 C 91.193 370.066, 91.162 370.490, 92.062 371.575 C 92.953 372.648, 92.947 374.482, 92.036 379.310 C 90.245 388.801, 90.148 388.854, 83.202 384.137 C 60.754 368.893, 43.330 350.620, 34.920 333.504 C 28.194 319.812, 24.165 298.709, 25.479 284.047 C 29.064 244.055, 52.546 205.360, 93.475 172 C 105.248 162.403, 127.022 148.260, 140.328 141.565 C 146.757 138.330, 151.837 135.503, 151.616 135.283 C 150.924 134.591, 138.691 140.508, 127.374 147.008 C 105.952 159.314, 91.294 170.608, 72.945 188.950 C 45.728 216.155, 29.565 245.223, 24.862 275.423 C 23.253 285.760, 24.279 305.725, 26.948 316 C 29.676 326.505, 35.534 339.213, 41.397 347.344 C 49.478 358.550, 64.727 372.859, 79.984 383.550 C 84.378 386.629, 88.209 389.528, 88.496 389.994 C 89.232 391.184, 84.127 395, 81.799 395 C 78.731 395, 76 393.100, 76 390.965 C 76 388.224, 72.487 385, 69.500 385 C 68.125 385, 66.048 385.952, 64.884 387.116 C 63.194 388.806, 62.876 390.037, 63.304 393.228 C 65.021 406.032, 84.180 410.518, 94.861 400.616 C 99.295 396.505, 101.245 391.764, 103.955 378.500 C 105.191 372.450, 106.720 367.169, 107.352 366.765 C 107.983 366.361, 109.533 366.024, 110.795 366.015 C 113.689 365.996, 118.382 361.437, 117.601 359.404 C 117.273 358.549, 117.451 358.161, 118.011 358.507 C 119.444 359.393, 119.225 364.569, 117.700 365.834 C 116.986 366.427, 114.550 367.208, 112.287 367.570 L 108.174 368.228 107.099 374.326 C 106.508 377.681, 106.357 380.742, 106.763 381.130 C 108.901 383.173, 129.521 393.871, 130.105 393.240 C 130.997 392.277, 135.131 368.798, 134.516 368.183 C 133.907 367.574, 133.426 369.207, 132.099 376.391 C 130.777 383.547, 129.683 385.001, 125.628 384.996 L 122.500 384.993 125.661 383.065 C 129.036 381.007, 129.262 380.531, 130.972 371.896 C 132.012 366.641, 132.239 366.323, 134.623 366.779 C 138.107 367.445, 138.335 368.610, 136.689 377.328 C 134.950 386.539, 135.379 389.226, 139.203 393.049 C 143.381 397.227, 150.148 397.381, 156.213 393.436 C 159.239 391.468, 160.406 391.204, 162.528 392.011 C 168.867 394.421, 177.348 392.452, 182.012 387.487 C 184.210 385.148, 184.346 385.130, 187.384 386.780 C 192.008 389.292, 204.106 389.016, 210.231 386.259 C 212.913 385.052, 215.212 384.534, 215.540 385.065 C 217.227 387.794, 219.112 385.099, 223.074 374.299 C 225.434 367.863, 227.521 363.062, 227.710 363.630 C 227.899 364.198, 226.501 369.618, 224.602 375.675 C 218.265 395.886, 213.910 418.990, 215.495 423.985 C 216.920 428.474, 219.166 425.559, 227.372 408.562 C 235.916 390.867, 244.293 377.015, 250.870 369.706 C 255.082 365.025, 261.699 360, 263.650 360 C 266.071 360, 265.112 365.503, 261.366 373.116 C 258.412 379.117, 255.755 382.417, 247.182 390.733 C 241.379 396.360, 236.957 401.290, 237.354 401.687 C 237.751 402.085, 239.522 401.813, 241.288 401.084 C 247.940 398.338, 253.750 397.528, 256.445 398.971 C 260.399 401.087, 260.804 404.072, 257.462 406.475 C 252.138 410.303, 240.496 420.286, 237.152 423.891 C 225.576 436.371, 224.721 444, 234.898 444 C 238.775 444, 249.240 434.454, 254.961 425.698 C 260.061 417.893, 264.469 406.004, 263.578 402.455 C 262.461 398.003, 258.621 395, 254.045 395 C 251.820 395, 250 394.638, 250 394.196 C 250 393.754, 251.620 391.842, 253.601 389.946 C 261.348 382.531, 269 368.716, 269 362.144 C 269 359.016, 266.328 356, 263.557 356 C 258.883 356, 245.529 368.296, 240.969 376.798 C 240.077 378.460, 238.503 381.098, 237.469 382.660 C 236.436 384.222, 231.837 392.700, 227.249 401.500 C 218.947 417.422, 218.909 417.473, 219.529 412 C 220.435 404.002, 223.520 391.271, 228.038 376.887 C 232.273 363.405, 232.632 361.377, 230.885 360.795 C 228.796 360.099, 231.748 349.615, 234.877 346.618 C 240.729 341.011, 241.673 345.248, 238.508 362.907 C 237.778 366.981, 237.507 371.196, 237.905 372.272 C 238.537 373.981, 239.347 373.412, 244.286 367.786 C 248.985 362.434, 250.200 360.256, 251.457 354.921 C 253.370 346.806, 253.390 342.898, 251.532 340.441 C 250.724 339.374, 250.049 338.143, 250.032 337.706 C 250.014 337.270, 253.262 337.045, 257.250 337.206 C 265.803 337.553, 266.835 339.251, 259 340.087 L 253.500 340.674 258.250 340.837 C 262.228 340.974, 263 341.315, 263 342.940 C 263 344.453, 262.188 344.947, 259.303 345.190 L 255.605 345.500 255.216 351.331 C 254.843 356.923, 254.910 357.118, 256.848 356.081 C 259.904 354.446, 265.514 354.784, 267.926 356.750 C 270.601 358.929, 270.891 365.511, 268.592 371.856 C 267.724 374.253, 267.262 376.615, 267.566 377.106 C 269.069 379.539, 280.001 377.118, 282.809 373.731 C 283.992 372.304, 284.473 372.300, 287.779 373.681 C 292.992 375.859, 299.267 374.921, 303.814 371.282 C 307.220 368.558, 307.728 368.431, 310.500 369.622 C 312.150 370.330, 315.827 370.930, 318.672 370.955 L 323.843 371 327.053 364.036 C 328.818 360.206, 331.109 356.307, 332.143 355.371 C 333.544 354.103, 333.160 355.559, 330.639 361.085 C 327.480 368.006, 325.110 374.827, 318.506 396 C 316.249 403.238, 315.086 405.288, 310.677 409.807 C 304.828 415.803, 299.530 419.446, 298.018 418.511 C 296.525 417.589, 296.777 410.053, 298.489 404.409 C 301.583 394.210, 299.708 393.406, 292.041 401.645 C 285.855 408.291, 278.269 415, 276.939 415 C 275.175 415, 276.068 412.024, 281.666 399.250 C 281.998 398.492, 281.452 398, 280.278 398 C 277.448 398, 273.586 406.789, 273.538 413.338 C 273.504 417.980, 273.732 418.533, 275.805 418.827 C 278.272 419.176, 281.735 416.872, 288.874 410.130 C 291.279 407.859, 293.468 406, 293.739 406 C 294.009 406, 293.930 408.403, 293.563 411.339 C 292 423.855, 300.003 425.929, 309.946 415.585 C 311.842 413.613, 313.674 412, 314.018 412 C 314.362 412, 313.800 417.240, 312.770 423.643 C 310.192 439.664, 311.620 442.836, 315.983 430.781 C 320.756 417.594, 326.808 408.702, 333.290 405.350 C 337.362 403.244, 338.281 404.591, 336.964 410.731 C 336.024 415.117, 335.067 416.511, 329.940 420.971 C 324.064 426.082, 321.795 430.195, 323.766 432.166 C 325.920 434.320, 331.694 429.463, 336.218 421.690 C 337.570 419.367, 340.594 416.584, 343.968 414.559 C 351.447 410.068, 356.097 407.763, 356.620 408.286 C 356.858 408.525, 356.099 414.906, 354.933 422.466 C 353.457 432.033, 353.130 436.530, 353.858 437.258 C 355.031 438.431, 355.203 438.094, 360.119 425.044 C 362.763 418.026, 364.349 415.516, 369.445 410.294 C 376.544 403.018, 379 402.283, 379 407.435 C 379 412.816, 377.672 415.142, 370.520 422.295 C 366.326 426.489, 363.973 429.619, 364.185 430.722 C 365.100 435.476, 371.931 431.274, 377.538 422.508 C 380.146 418.431, 382.399 416.529, 389.106 412.741 C 393.688 410.153, 397.779 408.379, 398.198 408.798 C 398.617 409.217, 398.451 411.347, 397.828 413.530 C 396.229 419.139, 396.171 435.554, 397.745 437.137 C 400.273 439.681, 404.288 436.768, 411.473 427.176 L 418.445 417.868 419.551 421.184 C 422.636 430.431, 433.250 427.144, 449.144 412.019 C 454.032 407.368, 455.167 405.767, 454.235 404.835 C 453.304 403.904, 451.521 405.100, 446.235 410.203 C 434.382 421.646, 425.557 425.778, 423.035 421.066 C 421.328 417.875, 421.846 416.009, 424.746 414.907 C 434.186 411.317, 441.423 399.902, 436.072 397.039 C 432.336 395.039, 427.121 398.887, 421.278 407.955 C 416.811 414.887, 403.383 432.645, 401.928 433.544 C 399.292 435.174, 398.774 432.124, 399.959 421.934 C 401.575 408.034, 403.720 401.770, 410.344 391.608 C 413.441 386.857, 416.889 381.177, 418.008 378.985 C 419.126 376.793, 420.262 375, 420.533 375 C 420.804 375, 419.420 378.262, 417.458 382.250 L 413.891 389.500 423.216 380 C 431.714 371.343, 442.967 357.557, 442.990 355.775 C 442.996 355.376, 441.538 355.376, 439.750 355.775 C 437.962 356.174, 433.012 356.500, 428.749 356.500 C 422.476 356.500, 420.998 356.790, 420.999 358.022 C 421 358.859, 419.697 361.126, 418.104 363.058 C 413.606 368.515, 409.756 376.353, 404.620 390.512 L 399.900 403.524 391.624 407.762 C 387.072 410.093, 383.024 412, 382.628 412 C 382.233 412, 382.196 410.472, 382.546 408.605 C 384.691 397.175, 372.829 399.244, 363.339 411.956 C 361.290 414.701, 359.416 416.749, 359.175 416.508 C 358.125 415.458, 363.395 396.619, 366.622 389.888 C 370.408 381.989, 379 359.994, 379 358.199 C 379 357.604, 379.498 356.810, 380.107 356.434 C 380.877 355.958, 381.005 356.702, 380.527 358.875 C 379.943 361.537, 380.129 362, 381.781 362 C 382.848 362, 385.417 360.849, 387.490 359.443 C 392.460 356.070, 394.479 356.733, 392.333 361.034 C 391.220 363.264, 391.078 364.478, 391.841 365.241 C 392.604 366.004, 392.365 367.084, 391.012 368.983 C 389.142 371.609, 389.143 371.706, 391.041 374.827 C 392.102 376.572, 393.292 378, 393.685 378 C 394.078 378, 393.876 377.476, 393.235 376.835 C 391.837 375.437, 394.388 373.083, 397.357 373.032 C 398.510 373.012, 399.015 372.482, 398.689 371.633 C 398.266 370.529, 398.628 370.481, 400.575 371.383 C 401.900 371.997, 402.988 373.232, 402.992 374.128 C 403.003 376.304, 406.164 378.979, 406.732 377.291 C 406.956 376.627, 409.550 372.352, 412.497 367.791 C 415.444 363.231, 418.136 358.367, 418.478 356.983 C 419.083 354.534, 419.298 354.476, 426.438 354.837 C 444.405 355.744, 457.893 346.973, 462.604 331.320 C 463.811 327.310, 463.809 326.357, 462.589 324.496 C 461.348 322.602, 461.390 321.845, 462.922 318.416 C 471.606 298.992, 479.032 263.842, 480.545 235 C 482.594 195.931, 471.300 154.977, 449.529 122.531 C 427.893 90.287, 400.501 69.767, 368 61.454 C 349.267 56.662, 320.605 54.892, 303 57.440 M 172.819 94.894 C 171.567 97.068, 169.071 99.549, 167.272 100.407 C 165.472 101.266, 164 102.323, 164 102.756 C 164 103.190, 165.612 104.413, 167.583 105.475 C 169.704 106.617, 171.997 109.035, 173.205 111.401 L 175.244 115.398 177.634 111.350 C 178.949 109.123, 181.594 106.456, 183.513 105.423 C 185.431 104.390, 187 103.207, 187 102.793 C 187 102.379, 185.264 101.155, 183.143 100.073 C 180.798 98.876, 178.787 96.901, 178.013 95.031 C 176.147 90.526, 175.345 90.505, 172.819 94.894 M 284 113.701 C 283.175 113.999, 279.499 115.539, 275.832 117.122 C 272.165 118.705, 268.552 119.765, 267.803 119.478 C 267.055 119.191, 265.580 119.586, 264.527 120.357 C 262.785 121.630, 262.726 122.142, 263.875 125.976 C 264.570 128.296, 264.995 130.287, 264.819 130.401 C 264.644 130.514, 262.611 131.428, 260.303 132.431 C 253.386 135.438, 252.714 142.425, 259.020 145.780 C 262.835 147.810, 272.742 146.663, 284.063 142.880 C 293.407 139.758, 294.260 139.635, 296.789 141.048 C 298.280 141.881, 300.647 144.676, 302.050 147.260 L 304.599 151.957 308.174 149.528 C 310.140 148.192, 312.030 146.365, 312.374 145.468 C 313.514 142.496, 313.024 135.426, 311.333 130.463 C 307.602 119.514, 292.882 110.487, 284 113.701 M 464 114.612 C 464 114.949, 466.612 119.787, 469.804 125.362 C 486.656 154.801, 494.712 183.434, 495.727 217.500 C 497.477 276.253, 479.826 334.775, 448.074 375.500 C 441.897 383.423, 440.898 385.533, 445.837 380.226 C 450.798 374.895, 460.248 361.106, 466.380 350.250 C 479.471 327.072, 489.441 297.187, 494.428 266.173 C 502.928 213.315, 494.785 164.720, 470.519 123.489 C 465.423 114.829, 464 112.892, 464 114.612 M 361.207 143.555 C 359.577 144.240, 356.952 146.421, 355.372 148.400 C 353.037 151.327, 351.831 152, 348.924 152 C 342.513 152, 338.201 159.206, 337.294 171.436 C 336.806 178.002, 336.950 178.694, 339.337 181.250 C 342.403 184.533, 344.531 184.746, 346.044 181.919 C 346.656 180.774, 348.560 179.248, 350.273 178.527 C 352.995 177.383, 354.055 177.472, 358.653 179.231 L 363.916 181.246 367.989 179.123 C 374.950 175.495, 380.781 177.065, 382.898 183.138 L 383.946 186.145 386.838 184.437 C 390.821 182.084, 393.326 177.445, 393.239 172.582 C 393.150 167.615, 392.282 165.490, 386.667 156.500 C 382.155 149.276, 379.383 147.040, 374.905 147.015 C 373.478 147.007, 371.538 146.147, 370.595 145.105 C 368.327 142.599, 364.847 142.024, 361.207 143.555 M 269 160 C 269 168.702, 269.626 169.465, 273.545 165.545 C 277.125 161.966, 277.071 154.809, 273.453 153.161 C 272.052 152.522, 270.477 152, 269.953 152 C 269.428 152, 269 155.597, 269 160 M 287.376 153.985 C 284.824 155.015, 283.508 160.575, 284.930 164.316 C 287.924 172.192, 300 169.535, 300 161 C 300 154.732, 293.908 151.347, 287.376 153.985 M 176.469 155.547 C 166.312 157.573, 160.025 165.195, 159.754 175.809 C 159.674 178.939, 159.773 183.481, 159.974 185.903 C 160.449 191.622, 157.858 193.998, 151.139 194.004 C 145.868 194.008, 140.536 196.734, 139.517 199.947 C 138.512 203.113, 140.652 208.312, 145.566 214.639 C 148.005 217.780, 150 221.148, 150 222.124 C 150 223.164, 147.338 225.799, 143.571 228.487 C 131.974 236.762, 129.300 241.399, 132.013 248.534 C 132.916 250.910, 132.506 251.867, 128.233 257.350 C 122.760 264.373, 106.627 286.536, 102.658 292.482 C 99.259 297.575, 99.021 305.161, 102.074 311.145 C 103.750 314.430, 111.470 326.737, 114.101 330.318 C 114.432 330.768, 118.389 330.631, 122.894 330.014 C 131.989 328.769, 134.606 329.184, 135.504 332.013 C 137.052 336.891, 133.642 338.743, 118.864 341.047 L 111.228 342.238 110.114 347.786 C 108.763 354.516, 108.750 355, 109.929 355 C 110.440 355, 111.369 352.540, 111.993 349.533 C 113.084 344.279, 113.271 344.044, 116.814 343.478 C 118.841 343.155, 121.262 342.738, 122.193 342.553 C 123.124 342.368, 124.657 343.068, 125.598 344.108 C 126.540 345.149, 127.837 346, 128.481 346 C 130.194 346, 134 350.354, 134 352.314 C 134 353.242, 134.617 354, 135.370 354 C 136.356 354, 137.218 350.705, 138.442 342.250 C 140.268 329.644, 140.760 327.427, 141.556 328.222 C 141.835 328.502, 141.161 334.529, 140.057 341.615 C 138.952 348.702, 138.429 354.630, 138.892 354.789 C 139.356 354.948, 141.707 356.073, 144.117 357.289 C 150.182 360.350, 150.815 362.736, 148.741 374.726 C 147.576 381.463, 147.385 384.759, 148.109 385.631 C 151.426 389.628, 155.507 381.232, 158.977 363.277 C 161.273 351.395, 162.243 348.222, 164.021 346.782 C 166.815 344.520, 168.209 344.539, 171.103 346.882 L 173.427 348.764 170.363 364.632 C 168.677 373.359, 167.505 381.063, 167.756 381.750 C 168.655 384.204, 172.841 383.076, 175.429 379.682 C 177.287 377.246, 178.602 373.137, 180.377 364.216 C 183.064 350.715, 185.237 346.253, 190.800 342.814 C 195.660 339.810, 204.794 339.730, 208.800 342.656 C 215.999 347.916, 216.703 358.002, 210.361 365.022 C 206.193 369.635, 201.337 371.455, 195.375 370.638 C 191.334 370.084, 191.001 370.208, 191.015 372.269 C 191.043 376.369, 194.543 379, 199.968 379 C 204.096 379, 212.544 374.626, 214.664 371.390 C 215.599 369.963, 217.652 362.226, 219.225 354.198 C 220.799 346.170, 222.600 338.982, 223.227 338.226 C 223.927 337.383, 225.940 336.945, 228.434 337.095 C 230.670 337.230, 234.077 336.628, 236.004 335.759 C 238.655 334.563, 240.603 334.386, 244.004 335.030 C 246.657 335.532, 249.999 335.490, 252.157 334.927 C 259.389 333.040, 272.183 318.718, 283.009 300.388 C 290.465 287.765, 297.002 275.341, 296.983 273.830 C 296.974 273.099, 293.392 270.627, 289.023 268.338 L 281.080 264.177 264.790 282.661 C 251.343 297.918, 248.452 300.739, 248.222 298.822 C 248.070 297.545, 247.070 292.675, 246.001 288 C 244.932 283.325, 242.898 274.100, 241.482 267.500 C 240.066 260.900, 238.429 253.995, 237.845 252.155 C 236.992 249.470, 237.123 248.054, 238.508 244.982 C 239.780 242.160, 240.130 239.314, 239.839 234.158 C 239.492 228.012, 238.978 226.486, 235.615 221.602 C 232.143 216.561, 231.851 215.645, 232.487 211.771 C 233.923 203.028, 233.436 197.713, 230.711 192.377 C 228.386 187.824, 228.160 186.482, 228.677 180.314 C 229.330 172.527, 227.628 167.235, 222.532 161.206 C 217.262 154.970, 214.302 154.172, 197.086 154.345 C 188.633 154.430, 179.356 154.971, 176.469 155.547 M 174.500 157.207 C 166.767 159.910, 161.032 167.500, 161.055 175 C 161.065 178.348, 161.145 178.269, 162.902 173.183 C 165.152 166.668, 169.883 161.521, 176.500 158.387 C 181.500 156.020, 180.159 155.228, 174.500 157.207 M 279.633 157 C 279.303 157.825, 278.371 160.412, 277.561 162.750 L 276.089 167 278.922 167 C 281.699 167, 281.745 166.907, 281.294 162.250 C 280.707 156.188, 280.376 155.141, 279.633 157 M 274 169.943 C 274 171.542, 278.302 174, 281.100 174 C 282.560 174, 284.324 173.314, 285.020 172.476 C 286.554 170.628, 285.452 169.148, 283.783 170.817 C 282.135 172.465, 278.489 172.294, 277 170.500 C 275.600 168.813, 274 168.516, 274 169.943 M 297.607 177.875 C 293.030 182.674, 288.577 184.338, 282.089 183.677 L 276.500 183.107 282.500 188.545 C 285.800 191.535, 288.950 193.971, 289.500 193.958 C 290.050 193.945, 292.300 192.691, 294.500 191.173 C 298.818 188.192, 301.329 182.820, 300.797 177.700 L 300.500 174.843 297.607 177.875 M 194.421 183.082 C 192.299 185.298, 190.717 186, 187.848 186 C 185.104 186, 183.165 186.795, 180.763 188.903 C 177.862 191.450, 176.895 191.742, 172.866 191.288 C 168.439 190.789, 168.236 190.883, 167.177 193.923 C 165.418 198.968, 167.741 203.144, 173.047 204.476 C 174.594 204.864, 177.415 207.588, 180.283 211.462 C 185.978 219.157, 192.654 223, 200.328 223 C 204.709 223, 205.649 222.591, 208.695 219.361 C 210.583 217.360, 212.822 213.985, 213.672 211.861 C 214.722 209.236, 215.839 208, 217.158 208 C 222.916 208, 228 202.170, 228 195.565 C 228 187.895, 218.491 182.626, 211.330 186.329 C 208.411 187.839, 208.191 187.779, 202.775 184.022 L 197.216 180.165 194.421 183.082 M 352.376 183.765 C 350.123 185.238, 347.237 191.193, 347.742 193.327 C 349.623 201.284, 359.386 198.323, 358.638 190.022 C 358.121 184.282, 355.537 181.700, 352.376 183.765 M 371.236 184.250 C 370.680 184.938, 369.916 187.379, 369.538 189.675 C 368.967 193.135, 369.205 194.205, 370.925 195.925 C 373.542 198.542, 376.431 198.569, 379 196 C 381.528 193.472, 381.506 192.569, 378.803 188.118 C 375.612 182.863, 373.307 181.685, 371.236 184.250 M 353 185.883 C 353 186.369, 353.866 186.993, 354.925 187.270 C 356.276 187.623, 356.692 187.360, 356.318 186.387 C 355.737 184.872, 353 184.456, 353 185.883 M 371.500 186 C 371.160 186.550, 371.809 187, 372.941 187 C 374.073 187, 375 186.550, 375 186 C 375 185.450, 374.352 185, 373.559 185 C 372.766 185, 371.840 185.450, 371.500 186 M 212.118 187.342 L 209.735 188.712 212.868 189.804 C 215.274 190.643, 216 191.488, 216 193.448 C 216 196.123, 214.581 196.888, 213.583 194.750 C 213.117 193.750, 212.883 193.750, 212.417 194.750 C 212.096 195.438, 211.233 196, 210.500 196 C 209.767 196, 208.966 195.438, 208.720 194.750 C 208.475 194.063, 207.923 193.827, 207.494 194.226 C 207.066 194.625, 207.268 195.618, 207.944 196.432 C 208.619 197.246, 208.907 198.341, 208.583 198.866 C 206.807 201.739, 212.429 206, 217.996 206 C 221.574 206, 225.578 202.530, 226.573 198.567 C 227.318 195.598, 225.665 190.912, 223.033 188.530 C 220.563 186.295, 214.992 185.689, 212.118 187.342 M 184.352 187.993 C 181.908 188.979, 180.321 191, 181.991 191 C 183.325 191, 189 188.145, 189 187.474 C 189 186.766, 186.780 187.014, 184.352 187.993 M 362.553 190.571 C 362.184 192.535, 361.636 194.785, 361.334 195.571 C 360.932 196.621, 361.611 197, 363.893 197 C 367.452 197, 367.351 197.280, 365.881 191.443 C 364.529 186.071, 363.450 185.789, 362.553 190.571 M 244.223 190.169 C 244.803 191.908, 250.946 193.835, 266 197 C 273.425 198.561, 278.782 199.874, 277.905 199.919 C 276.065 200.012, 273 203.094, 273 204.850 C 273 205.506, 274.107 206.547, 275.459 207.163 C 277.442 208.067, 278.432 207.947, 280.575 206.542 C 282.433 205.325, 283.067 205.207, 282.681 206.151 C 279.875 213.017, 279.742 214.953, 281.358 225.330 C 282.255 231.091, 282.710 237.198, 282.370 238.902 C 281.983 240.836, 282.156 242, 282.830 242 C 284.927 242, 285.264 234.746, 283.626 224.879 C 282.054 215.417, 282.065 214.765, 283.873 209.622 C 286.925 200.937, 287.378 200.402, 289.252 203.262 C 291.245 206.304, 292.649 211.730, 293.519 219.750 C 294.224 226.257, 296.004 228.414, 295.994 222.750 C 295.987 218.967, 294.464 209.278, 293.484 206.779 C 292.857 205.183, 293.030 205.168, 295.867 206.584 C 298.195 207.745, 299.413 207.849, 300.963 207.020 C 302.083 206.420, 303 205.565, 303 205.120 C 303 203.888, 299.754 201.214, 297.039 200.210 C 295.065 199.480, 295.896 199.190, 301.560 198.636 C 314.088 197.411, 330 194.740, 330 193.861 C 330 192.589, 326.127 192.802, 315.239 194.675 C 300.349 197.236, 274.150 197.022, 262.500 194.244 C 257.550 193.063, 251.531 191.401, 249.124 190.549 C 243.879 188.692, 243.727 188.680, 244.223 190.169 M 171.500 192.724 C 172.600 192.994, 174.063 193.672, 174.750 194.230 C 175.596 194.917, 176 194.916, 176 194.229 C 176 193.033, 173.529 191.952, 171.168 192.116 C 169.937 192.202, 170.024 192.361, 171.500 192.724 M 188.334 196.427 C 188.635 197.212, 188.233 198.392, 187.441 199.049 C 185.524 200.640, 185.578 205.901, 187.518 206.645 C 189.641 207.460, 194.870 205.112, 196.115 202.785 C 196.687 201.717, 196.823 200.091, 196.419 199.172 C 196.015 198.252, 195.775 196.938, 195.886 196.250 C 196.142 194.665, 194.761 194.639, 193.200 196.200 C 192.267 197.133, 191.733 197.133, 190.800 196.200 C 189.153 194.553, 187.667 194.690, 188.334 196.427 M 201.346 203 L 200.278 207 203.246 207 C 205.550 207, 206.077 206.644, 205.603 205.407 C 205.267 204.531, 204.720 202.731, 204.387 201.407 C 203.516 197.936, 202.564 198.434, 201.346 203 M 278.352 201.993 C 275.105 203.304, 274.503 205, 277.286 205 C 278.608 205, 280.505 204.100, 281.500 203 C 283.498 200.792, 282.288 200.405, 278.352 201.993 M 294.497 202.997 C 295.494 204.099, 297.167 205, 298.214 205 C 300.896 205, 299.593 203.402, 295.844 202.096 C 292.725 201.008, 292.708 201.020, 294.497 202.997 M 359.861 202.916 C 361.159 204.062, 363.022 205, 364 205 C 364.978 205, 366.841 204.062, 368.139 202.916 C 370.169 201.125, 370.219 200.940, 368.500 201.595 C 367.400 202.014, 365.375 202.357, 364 202.357 C 362.625 202.357, 360.600 202.014, 359.500 201.595 C 357.781 200.940, 357.831 201.125, 359.861 202.916 M 353.613 208.720 C 353.276 209.057, 353 210.631, 353 212.218 C 353 214.564, 353.647 215.372, 356.468 216.551 C 360.536 218.251, 366.975 218.412, 372.250 216.947 C 375.789 215.965, 376 215.680, 376 211.885 L 376 207.864 372.750 210.182 C 368.382 213.297, 361.321 213.353, 357.197 210.304 C 355.563 209.096, 353.950 208.383, 353.613 208.720 M 206.559 210.532 C 204.344 212.207, 199.423 212.493, 198.500 211 C 198.160 210.450, 197.346 210.015, 196.691 210.033 C 194.447 210.096, 200.218 214, 202.555 214 C 203.838 214, 206.151 212.889, 207.694 211.532 C 210.699 208.888, 209.791 208.087, 206.559 210.532 M 172.969 243.250 C 172.952 251.088, 172.744 260.425, 172.508 264 C 172.271 267.575, 171.826 282.196, 171.518 296.491 L 170.959 322.481 167.979 324.813 C 164.091 327.857, 163.949 332.028, 167.635 334.927 C 169.084 336.067, 170.823 337, 171.500 337 C 173.945 337, 178 332.863, 178 330.368 C 178 328.965, 178.436 328.151, 179 328.500 C 179.550 328.840, 180 329.991, 180 331.059 C 180 332.844, 180.784 333.004, 189.750 333.053 C 195.113 333.082, 202.136 333.353, 205.359 333.655 C 208.581 333.956, 213.595 333.906, 216.500 333.543 L 221.784 332.883 223.836 324.692 C 226.753 313.052, 230.667 294.459, 231.561 288 C 232.912 278.236, 232.098 269.465, 228.566 255.758 C 223.396 235.691, 223.014 234.780, 218.837 232.541 L 215.183 230.582 209.842 233.519 C 201.172 238.285, 191.839 237.551, 181.770 231.311 C 179.718 230.040, 176.906 229, 175.520 229 L 173 229 172.969 243.250 M 179.007 234.750 C 179.022 236.376, 185.798 239.881, 191.198 241.055 C 195.773 242.051, 198.090 242.042, 202.948 241.011 C 206.277 240.305, 209 239.302, 209 238.784 C 209 238.217, 207.705 238.172, 205.750 238.671 C 203.963 239.127, 199.515 239.455, 195.867 239.401 C 190.673 239.323, 188.205 238.727, 184.491 236.651 C 179.306 233.753, 178.997 233.646, 179.007 234.750 M 136.174 292.750 C 131.775 297.563, 128.086 301.865, 127.975 302.310 C 127.571 303.930, 140.450 326.946, 141.081 325.733 C 141.435 325.055, 142.497 315.950, 143.443 305.500 C 144.388 295.050, 145.336 285.938, 145.549 285.250 C 146.460 282.315, 143.674 284.544, 136.174 292.750 M 409.301 298.014 C 408.588 299.902, 406.940 301.542, 404.891 302.404 C 402.203 303.534, 401.965 303.857, 403.559 304.213 C 404.627 304.452, 406.738 304.040, 408.250 303.298 C 410.463 302.212, 411 301.271, 411 298.474 C 411 296.563, 410.874 295, 410.719 295 C 410.565 295, 409.927 296.356, 409.301 298.014 M 365.150 304.500 C 362.666 318.012, 362.711 317.575, 363.936 316.408 C 365.260 315.149, 367.318 303.160, 366.792 299.780 C 366.596 298.524, 365.859 300.643, 365.150 304.500 M 299.651 326.129 C 292.924 359.978, 292.645 361.633, 293.353 363.477 C 293.735 364.472, 294.250 365.083, 294.498 364.835 C 295.586 363.747, 300.620 336.848, 303.075 319 C 305.268 303.055, 303.507 306.720, 299.651 326.129 M 446.819 316.904 C 447.031 319.121, 446.228 325.493, 445.034 331.066 C 443.841 336.639, 443.056 341.390, 443.290 341.623 C 444.356 342.689, 445.837 338.815, 447.353 331 C 449.336 320.778, 449.421 316.958, 447.718 314.628 C 446.612 313.116, 446.488 313.429, 446.819 316.904 M 404.204 318.319 C 404.088 320.069, 402.795 327.253, 401.332 334.285 C 399.571 342.742, 399.006 347.406, 399.663 348.063 C 400.319 348.719, 401.262 345.576, 402.447 338.778 C 403.433 333.125, 404.633 326.925, 405.114 325 C 406.206 320.630, 406.250 316.272, 405.207 315.628 C 404.772 315.359, 404.320 316.570, 404.204 318.319 M 427.247 318.250 C 426.068 319.726, 422 338.360, 422 342.284 C 422 343.778, 422.450 345, 423 345 C 423.550 345, 424 344.032, 424 342.850 C 424 341.046, 425.725 331.083, 427.561 322.275 C 427.817 321.052, 429.257 319.382, 430.763 318.565 L 433.500 317.080 430.872 317.040 C 429.427 317.018, 427.796 317.563, 427.247 318.250 M 380.782 325.967 C 381.130 328.338, 378.500 342.876, 376.509 349.591 C 376.331 350.191, 376.567 351.299, 377.034 352.054 C 379.360 355.819, 387.939 347.354, 387.984 341.250 C 387.998 339.340, 387.469 339, 384.481 339 C 381.131 339, 380.997 338.868, 381.695 336.250 C 382.721 332.402, 382.500 325.100, 381.322 323.922 C 380.676 323.276, 380.490 323.979, 380.782 325.967 M 330.412 325.858 C 330.809 326.500, 330.429 328.439, 329.567 330.166 C 327.437 334.435, 327.598 335.674, 330 333.500 C 332.177 331.530, 332.697 326.549, 330.845 325.405 C 330.126 324.960, 329.963 325.130, 330.412 325.858 M 363.021 327.782 C 360.585 329.754, 358.974 334.901, 355.492 351.832 C 354.155 358.334, 352.421 363.982, 351.426 365.082 C 349.514 367.194, 346.005 367.605, 344.315 365.915 C 343.535 365.135, 342.354 365.283, 340.115 366.441 C 338.402 367.327, 337.016 367.702, 337.036 367.276 C 337.203 363.621, 340.211 354.764, 342.355 351.610 C 343.810 349.471, 345 347.165, 345 346.485 C 345 345.806, 345.281 343.844, 345.625 342.125 L 346.250 339 339.719 339 C 332.384 339, 332.285 339.213, 336.126 346.747 C 337.157 348.769, 338 351.905, 338 353.716 C 338 357.587, 331.199 376.607, 326.381 386.212 C 322.179 394.587, 315.698 417, 317.478 417 C 317.671 417, 319.464 414.773, 321.462 412.052 C 328.755 402.117, 339.088 397.519, 340.599 403.537 C 340.949 404.932, 340.969 407.407, 340.643 409.037 C 340.317 410.667, 340.342 412, 340.699 412 C 341.056 412, 345.098 410.087, 349.682 407.750 L 358.016 403.500 360.542 395 C 363.907 383.678, 371.541 362.425, 373.923 357.750 C 376.208 353.265, 375.311 352.792, 372.500 357 C 371.400 358.647, 370.156 359.996, 369.735 359.997 C 369.315 359.999, 368.051 358.538, 366.927 356.750 C 364.899 353.526, 364.789 347.964, 366.620 341.250 C 367.172 339.224, 366.880 339, 363.686 339 C 360.259 339, 360.167 338.903, 360.960 336.139 C 362.270 331.571, 363.849 329.183, 366.013 328.496 C 367.122 328.144, 367.771 327.438, 367.456 326.928 C 366.614 325.566, 365.490 325.783, 363.021 327.782 M 276.573 340.570 C 275.709 341.433, 274.802 343.121, 274.557 344.320 C 274.312 345.519, 273.374 350.016, 272.473 354.314 C 270.888 361.877, 270.988 365, 272.816 365 C 273.299 365, 274.485 360.500, 275.451 355 C 276.730 347.719, 277.603 345, 278.663 345 C 279.463 345, 279.838 344.547, 279.496 343.993 C 279.153 343.439, 279.588 342.712, 280.462 342.376 C 281.691 341.905, 281.791 341.453, 280.903 340.383 C 279.423 338.599, 278.504 338.639, 276.573 340.570 M 95 345 C 93.831 345.755, 94.107 345.973, 96.250 345.985 C 97.763 345.993, 99 345.550, 99 345 C 99 343.736, 96.957 343.736, 95 345 M 322.302 350.345 C 323.309 352.968, 321.342 356.821, 317.942 358.889 C 314.787 360.808, 315.294 362.550, 318.660 361.351 C 322.353 360.036, 324 357.739, 324 353.904 C 324 351.822, 323.474 349.793, 322.830 349.395 C 322.042 348.908, 321.870 349.218, 322.302 350.345 M 196.668 351.253 C 195.726 351.943, 194.681 354.193, 194.346 356.253 C 193.755 359.898, 193.821 360, 196.798 360 C 200.402 360, 203 357.750, 203 354.629 C 203 350.556, 199.890 348.898, 196.668 351.253 M 396.698 360.148 C 399.279 361.167, 406 361.160, 406 360.138 C 406 359.664, 403.501 359.313, 400.448 359.357 C 397.151 359.405, 395.628 359.726, 396.698 360.148 M 255.310 369.750 C 253.108 372.363, 250.551 375.962, 249.628 377.750 C 248.054 380.796, 248.055 381, 249.635 381 C 252.581 381, 260.988 370.455, 260.996 366.750 C 261.002 363.935, 259.576 364.688, 255.310 369.750 M 416.358 372.151 C 412.114 380.326, 409.995 385.102, 410.051 386.359 C 410.079 386.987, 412.357 383.065, 415.113 377.646 C 417.869 372.226, 419.902 367.568, 419.629 367.296 C 419.357 367.024, 417.885 369.208, 416.358 372.151 M 421.624 371.539 C 420.659 374.053, 420.943 374.702, 422.122 372.675 C 422.706 371.671, 422.973 370.639, 422.715 370.382 C 422.458 370.124, 421.966 370.645, 421.624 371.539 M 308.491 372.014 C 308.146 372.572, 306.035 373.962, 303.800 375.102 C 299.764 377.161, 293.713 377.342, 288.440 375.562 C 286.863 375.029, 285.396 375.820, 282.190 378.932 C 278.117 382.885, 278 383.179, 278 389.499 C 278 395.517, 278.162 396, 280.186 396 C 281.388 396, 283.389 396.956, 284.633 398.125 L 286.895 400.250 291.145 397.125 C 296.358 393.291, 300.255 393.093, 303.412 396.500 C 304.687 397.875, 306.365 399, 307.142 399 C 311.831 399, 316.410 391.150, 317.769 380.784 L 318.649 374.068 314.146 372.534 C 308.804 370.714, 309.268 370.757, 308.491 372.014 M 264.225 383.288 C 261.298 388.816, 261.414 390.912, 264.856 394.682 C 266.427 396.402, 267.985 398.519, 268.318 399.388 C 269.059 401.317, 271.766 400.473, 274.217 397.549 C 275.396 396.141, 275.944 393.679, 275.967 389.684 C 275.985 386.486, 276.418 383.088, 276.928 382.134 C 277.718 380.659, 277.382 380.398, 274.678 380.386 C 272.930 380.378, 270.365 380.081, 268.978 379.724 C 266.774 379.158, 266.175 379.608, 264.225 383.288 M 102 396.860 C 102 397.843, 104.654 399.344, 119.753 406.900 C 137.704 415.884, 152.400 421.876, 173.944 428.994 C 191.441 434.776, 221.686 442.400, 224.769 441.806 C 225.661 441.634, 220.791 440.262, 213.946 438.757 C 180.503 431.404, 144.757 418.390, 113.623 402.233 C 107.231 398.915, 102 396.497, 102 396.860 M 430.209 401.566 C 427.502 403.462, 423.429 411, 425.111 411 C 426.599 411, 435 402.616, 435 401.132 C 435 399.532, 432.833 399.728, 430.209 401.566 M 250.450 416.711 C 241.127 424.776, 232.439 434.042, 231.537 436.884 C 229.569 443.083, 236.465 441.464, 243.876 433.988 C 248.957 428.862, 258.441 413.824, 257.802 411.907 C 257.568 411.203, 254.507 413.202, 250.450 416.711 M 265.250 417.496 C 264.563 418.277, 264 419.208, 264 419.565 C 264 419.922, 262.160 422.525, 259.911 425.349 L 255.823 430.484 258.884 431.110 C 260.568 431.454, 265.107 432.048, 268.973 432.429 L 276 433.121 276 428.086 C 276 423.515, 275.727 422.910, 273.030 421.515 C 271.396 420.671, 269.580 419.084, 268.994 417.990 C 267.747 415.659, 266.959 415.555, 265.250 417.496 M 286.486 418.843 C 285.944 419.347, 283.813 420.298, 281.750 420.957 C 278.025 422.147, 278 422.191, 278 427.578 L 278 433 291.418 433 C 306.206 433, 308.156 432.652, 307.297 430.167 C 306.370 427.485, 303.862 426, 300.259 426 C 296.066 426, 291.776 423.836, 289.340 420.492 C 288.173 418.889, 287.102 418.271, 286.486 418.843 M 65 422.877 C 65 425.003, 67.872 431, 68.890 431 C 69.436 431, 70.203 430.480, 70.595 429.845 C 71.039 429.128, 70.870 428.963, 70.147 429.409 C 68.786 430.250, 67.508 427.605, 68.500 425.999 C 68.986 425.213, 69.577 425.234, 70.589 426.074 C 72.592 427.736, 72.336 430.750, 70.089 431.952 C 67.786 433.185, 64 439.075, 64 441.427 C 64 442.357, 64.370 442.890, 64.822 442.610 C 65.274 442.331, 66.391 442.975, 67.304 444.042 C 68.675 445.643, 68.760 446.433, 67.789 448.563 C 66.873 450.575, 66.888 451.313, 67.860 451.913 C 68.545 452.337, 68.969 453.317, 68.803 454.092 C 68.599 455.041, 69.395 455.487, 71.250 455.461 C 74.330 455.416, 74.932 456.573, 72.250 457.380 C 71.287 457.670, 72.075 457.743, 74 457.543 C 81.446 456.769, 90 452.787, 90 450.095 C 90 449.007, 90.450 447.840, 91 447.500 C 92.247 446.729, 92.278 448.140, 91.081 451.286 C 90.457 452.928, 88.375 454.427, 84.581 455.967 C 81.512 457.213, 79 458.530, 79 458.894 C 79 461.241, 82.380 463.781, 86.207 464.310 C 94.415 465.445, 101 467.172, 101 468.190 C 101 468.761, 100.225 468.909, 99.250 468.526 C 98.287 468.147, 94.237 467.207, 90.249 466.436 C 83.272 465.086, 82.699 465.128, 75.093 467.531 C 70.745 468.904, 66.133 470.958, 64.844 472.094 L 62.500 474.160 64.973 472.580 C 67.828 470.755, 69 470.587, 69 472 C 69 472.550, 68.352 473, 67.559 473 C 66.766 473, 65.864 473.411, 65.553 473.914 C 65.018 474.780, 72.732 474.708, 115.500 473.449 C 143.699 472.619, 164.823 471.519, 165.492 470.845 C 165.850 470.485, 164.750 469.884, 163.048 469.510 C 158.500 468.512, 153.998 464.353, 154.010 461.161 C 154.020 458.333, 158.700 447.367, 159.539 448.206 C 159.812 448.479, 159.137 450.682, 158.040 453.101 C 155.562 458.563, 155.450 463.211, 157.750 465.217 C 158.713 466.056, 161.857 467.510, 164.738 468.448 C 171.411 470.620, 172.006 471.654, 167.065 472.489 C 164.223 472.969, 163.275 473.552, 163.668 474.578 C 164.060 475.599, 163.409 476.009, 161.357 476.030 C 158.790 476.058, 158.693 476.173, 160.398 477.163 C 163.034 478.693, 174.118 477.575, 181.538 475.030 C 186.125 473.457, 187.866 472.303, 188.780 470.230 C 189.441 468.728, 190.903 466.081, 192.027 464.347 C 194.929 459.870, 195.740 451.779, 193.613 448.531 C 191.453 445.236, 192.295 445.339, 198.135 449.087 C 208.209 455.551, 211.593 462.078, 208.330 468.754 C 205.593 474.356, 197.816 477.882, 183.925 479.817 C 174.928 481.071, 172.980 481.638, 173.244 482.925 C 173.953 486.382, 197.902 483.205, 207.137 478.429 C 213.795 474.986, 216.168 464.171, 212.042 456.082 C 209.525 451.149, 202.690 445.152, 195.660 441.710 C 188.785 438.343, 172.609 434.358, 162.286 433.487 C 153.665 432.759, 135.123 434.118, 118.974 436.659 C 108.801 438.261, 108.252 438.251, 102.571 436.357 L 96.693 434.398 94.323 436.768 C 91.913 439.178, 88.982 439.450, 88.276 437.329 C 88.027 436.583, 88.635 436.353, 89.948 436.697 C 93.326 437.580, 95.258 435.186, 94.486 431.072 C 93.550 426.082, 93.199 425.801, 90.845 428.155 C 89.289 429.711, 89.078 430.430, 90.010 431.006 C 90.695 431.430, 90.947 432.277, 90.569 432.888 C 89.571 434.503, 88 434.250, 88 432.474 C 88 431.112, 87.678 431.115, 85 432.500 C 83.350 433.353, 82 433.620, 82 433.093 C 82 432.566, 82.859 431.862, 83.910 431.529 C 84.960 431.195, 86.272 430.377, 86.826 429.711 C 87.598 428.782, 86.444 428.555, 81.866 428.737 C 78.584 428.867, 76.109 428.632, 76.367 428.216 C 76.624 427.799, 75.072 426.492, 72.918 425.312 C 70.763 424.132, 69 423.649, 69 424.238 C 69 424.828, 68.100 424.495, 67 423.500 C 65.806 422.420, 65 422.169, 65 422.877 M 346.500 442.089 C 329.184 446.086, 316.249 447.346, 292.500 447.348 C 272.206 447.349, 262.658 446.767, 243.500 444.358 C 233.509 443.102, 239.847 444.913, 251.516 446.649 C 268.735 449.210, 313.762 449.233, 330 446.689 C 341.579 444.875, 355.678 441.656, 356.753 440.580 C 357.621 439.712, 355.339 440.048, 346.500 442.089 M 75.184 446.531 C 75.358 447.923, 75.950 449.062, 76.500 449.062 C 77.050 449.062, 77.642 447.923, 77.816 446.531 C 78.042 444.727, 77.664 444, 76.500 444 C 75.336 444, 74.958 444.727, 75.184 446.531 M 64.656 447.545 C 64.960 448.339, 65.612 448.740, 66.105 448.435 C 67.345 447.669, 67.231 447.303, 65.551 446.658 C 64.584 446.287, 64.286 446.582, 64.656 447.545 M 68.304 463.396 C 63.075 464.738, 59.350 466.315, 58.015 467.750 L 55.922 470 58.711 469.968 C 60.245 469.951, 62.374 469.276, 63.441 468.468 C 64.509 467.661, 66.707 467, 68.325 467 C 70.882 467, 78.770 465.189, 79.893 464.344 C 80.446 463.927, 77.889 460.969, 77.128 461.146 C 76.782 461.226, 72.812 462.238, 68.304 463.396 M 62.872 470.750 C 61.629 472.336, 61.664 472.371, 63.250 471.128 C 64.213 470.373, 65 469.585, 65 469.378 C 65 468.555, 64.179 469.084, 62.872 470.750" stroke="none" fill="black" fill-rule="evenodd"/>
</svg>