<?xml version="1.0" encoding="UTF-8"?>
<svg width="275px" height="91px" viewBox="0 0 275 91" version="1.1" xmlns="http://www.w3.org/2000/svg" xmlns:xlink="http://www.w3.org/1999/xlink">
    <!-- Generator: Sketch 64 (93537) - https://sketch.com -->
    <title>logo</title>
    <desc>Created with Sketch.</desc>
    <defs>
        <polygon id="path-1" points="0 91 274.883 91 274.883 0.646 0 0.646"></polygon>
        <path d="M46.529,0.611 C39.258,0.613 31.987,0.606 24.715,0.606 L24.715,0.606 C21.342,0.607 17.968,0.606 14.594,0.606 L14.594,0.606 L14.593,0.606 C6.864,0.606 0.594,6.824 0.498,14.533 L0.498,14.533 L0.49,14.533 C0.49,14.564 0.494,14.593 0.494,14.624 L0.494,14.624 C0.494,14.653 0.49,14.68 0.49,14.71 L0.49,14.71 L0.498,14.71 C0.595,22.416 6.863,28.636 14.593,28.636 L14.593,28.636 C22.382,28.636 28.697,22.32 28.696,14.532 L28.696,14.532 L17.501,14.532 C17.501,16.139 16.2,17.441 14.594,17.441 L14.594,17.441 C13.016,17.441 11.741,16.186 11.692,14.622 L11.692,14.622 C11.74,13.057 13.015,11.801 14.593,11.801 L14.593,11.801 C21.024,11.801 27.455,11.801 33.886,11.8 L33.886,11.8 C36.478,11.834 39.074,11.799 41.666,11.798 L41.666,11.798 C42.363,11.798 43.085,11.825 43.813,11.853 L43.813,11.853 C45.64,11.922 47.526,11.989 49.247,11.623 L49.247,11.623 C50.114,11.44 50.761,10.735 51.278,9.835 L51.278,9.835 L56.585,0.6 L56.585,0.6 C53.232,0.606 49.881,0.61 46.529,0.611" id="path-3"></path>
        <linearGradient x1="0.0113999465%" y1="50.4360955%" x2="100.41921%" y2="49.5601424%" id="linearGradient-5">
            <stop stop-color="#A5C614" offset="0%"></stop>
            <stop stop-color="#3AAA34" offset="100%"></stop>
        </linearGradient>
        <path d="M14.275,5.363 C13.375,5.88 12.671,6.527 12.486,7.394 L12.486,7.394 C12.269,8.417 12.316,9.476 12.316,10.516 L12.316,10.516 C12.328,18.464 12.388,26.413 12.423,34.361 L12.423,34.361 C12.449,40.303 12.474,46.246 12.5,52.19 L12.5,52.19 C12.501,52.305 12.501,52.421 12.501,52.536 L12.501,52.536 C12.534,54.46 12.303,56.357 11.605,58.17 L11.605,58.17 C11.099,59.484 10.273,60.718 9.077,61.462 L9.077,61.462 C8.605,61.755 8.086,61.966 7.563,62.157 L7.563,62.157 C5.575,62.882 3.866,63.002 1.788,63.038 L1.788,63.038 C1.788,63.038 0.221,63.065 0.22,63.065 L0.22,63.065 C0.294,63.064 0.475,63.252 0.531,63.292 L0.531,63.292 C0.741,63.447 0.951,63.601 1.158,63.76 L1.158,63.76 C1.612,64.113 2.085,64.441 2.579,64.731 L2.579,64.731 C5.215,66.279 8.387,66.87 11.41,66.483 L11.41,66.483 C14.345,66.107 17.029,64.81 19.192,62.798 L19.192,62.798 C20.016,62.032 20.753,61.174 21.377,60.239 L21.377,60.239 C22.21,58.99 22.815,57.597 23.197,56.147 L23.197,56.147 C23.491,55.03 23.584,53.923 23.672,52.78 L23.672,52.78 C23.673,52.765 23.684,52.532 23.697,52.532 L23.697,52.532 C23.675,47.722 23.655,42.913 23.634,38.103 L23.634,38.103 C23.601,30.443 23.569,22.781 23.535,15.121 L23.535,15.121 C23.516,10.099 23.511,5.078 23.511,0.056 L23.511,0.056 L14.275,5.363 Z" id="path-6"></path>
        <linearGradient x1="50.3060573%" y1="99.926142%" x2="49.6926357%" y2="0.318884685%" id="linearGradient-8">
            <stop stop-color="#A5C614" offset="0%"></stop>
            <stop stop-color="#3AAA34" offset="100%"></stop>
        </linearGradient>
    </defs>
    <g id="Symbols" stroke="none" stroke-width="1" fill="none" fill-rule="evenodd">
        <g id="main-nav" transform="translate(-45.000000, -1.000000)">
            <g id="logo">
                <g transform="translate(45.000000, 0.000000)">
                    <g id="Group-6" transform="translate(0.000000, 0.353600)">
                        <path d="M127.2417,66.4489 L123.7897,66.4489 C123.4947,66.4489 123.2417,66.5259 123.0287,66.6789 C122.8167,66.8329 122.6687,67.0269 122.5867,67.2629 L118.9927,76.9629 C118.7807,77.5299 118.6067,78.0849 118.4707,78.6269 C118.3347,79.1699 118.2147,79.7129 118.1077,80.2559 C118.0017,79.7129 117.8807,79.1699 117.7447,78.6269 C117.6097,78.0849 117.4407,77.5299 117.2407,76.9629 L113.7357,67.2629 C113.6527,67.0269 113.5027,66.8329 113.2847,66.6789 C113.0657,66.5259 112.7977,66.4489 112.4787,66.4489 L108.8507,66.4489 L116.0727,84.6099 L120.0377,84.6099 L127.2417,66.4489 Z M133.0917,66.8739 C132.0117,67.3459 131.0977,67.9859 130.3477,68.7939 C129.5987,69.6029 129.0237,70.5529 128.6227,71.6439 C128.2207,72.7359 128.0207,73.9009 128.0207,75.1399 C128.0207,76.7329 128.2507,78.1349 128.7107,79.3439 C129.1707,80.5539 129.8027,81.5689 130.6047,82.3889 C131.4067,83.2089 132.3507,83.8289 133.4367,84.2469 C134.5227,84.6659 135.6967,84.8759 136.9597,84.8759 C137.5957,84.8759 138.2547,84.8279 138.9327,84.7339 C139.6117,84.6389 140.2787,84.4769 140.9337,84.2469 C141.5887,84.0169 142.2167,83.7099 142.8187,83.3269 C143.4207,82.9439 143.9627,82.4679 144.4467,81.9019 L143.1727,80.3089 C143.0777,80.1789 142.9657,80.0789 142.8357,80.0079 C142.7067,79.9369 142.5527,79.9019 142.3757,79.9019 C142.1047,79.9019 141.8237,79.9839 141.5347,80.1499 C141.2457,80.3149 140.9097,80.4979 140.5267,80.6979 C140.1427,80.8989 139.6947,81.0819 139.1797,81.2469 C138.6677,81.4119 138.0567,81.4949 137.3487,81.4949 C135.9087,81.4949 134.7527,81.0579 133.8797,80.1849 C133.0057,79.3119 132.5047,77.9429 132.3747,76.0779 L143.5977,76.0779 C143.7977,76.0779 143.9627,76.0519 144.0927,75.9989 C144.2227,75.9459 144.3257,75.8569 144.4027,75.7329 C144.4797,75.6089 144.5327,75.4379 144.5617,75.2199 C144.5917,75.0019 144.6067,74.7269 144.6067,74.3969 C144.6067,73.0869 144.4117,71.9219 144.0217,70.9009 C143.6327,69.8799 143.0897,69.0189 142.3937,68.3159 C141.6977,67.6149 140.8687,67.0799 139.9067,66.7149 C138.9447,66.3489 137.8917,66.1659 136.7467,66.1659 C135.3897,66.1659 134.1717,66.4019 133.0917,66.8739 L133.0917,66.8739 Z M138.5347,69.6259 C139.0187,69.8449 139.4197,70.1429 139.7387,70.5199 C140.0567,70.8979 140.2927,71.3369 140.4467,71.8389 C140.5997,72.3409 140.6767,72.8739 140.6767,73.4409 L132.4637,73.4409 C132.6637,72.1189 133.1237,71.0989 133.8437,70.3789 C134.5637,69.6589 135.5607,69.2989 136.8357,69.2989 C137.4847,69.2989 138.0507,69.4079 138.5347,69.6259 L138.5347,69.6259 Z M152.5357,84.6099 L152.5357,73.2989 C152.9837,72.3319 153.5327,71.5969 154.1817,71.0949 C154.8307,70.5939 155.6097,70.3429 156.5187,70.3429 C157.0257,70.3429 157.4327,70.3849 157.7397,70.4669 C158.0467,70.5499 158.2887,70.5909 158.4657,70.5909 C158.6657,70.5909 158.8257,70.5469 158.9437,70.4579 C159.0617,70.3699 159.1377,70.2189 159.1737,70.0069 L159.7397,66.7319 C159.1497,66.3189 158.4067,66.1129 157.5097,66.1129 C156.4237,66.1129 155.4447,66.4369 154.5717,67.0859 C153.6977,67.7349 152.9367,68.6199 152.2877,69.7409 L152.0227,67.5459 C151.9637,67.1449 151.8457,66.8619 151.6687,66.6969 C151.4917,66.5319 151.1787,66.4489 150.7307,66.4489 L148.1637,66.4489 L148.1637,84.6099 L152.5357,84.6099 Z M166.4747,66.8739 C165.3957,67.3459 164.4807,67.9859 163.7317,68.7939 C162.9817,69.6029 162.4067,70.5529 162.0057,71.6439 C161.6047,72.7359 161.4037,73.9009 161.4037,75.1399 C161.4037,76.7329 161.6337,78.1349 162.0937,79.3439 C162.5547,80.5539 163.1857,81.5689 163.9877,82.3889 C164.7907,83.2089 165.7347,83.8289 166.8197,84.2469 C167.9057,84.6659 169.0797,84.8759 170.3427,84.8759 C170.9797,84.8759 171.6377,84.8279 172.3167,84.7339 C172.9947,84.6389 173.6617,84.4769 174.3167,84.2469 C174.9707,84.0169 175.5997,83.7099 176.2017,83.3269 C176.8037,82.9439 177.3457,82.4679 177.8307,81.9019 L176.5547,80.3089 C176.4607,80.1789 176.3487,80.0789 176.2197,80.0079 C176.0897,79.9369 175.9357,79.9019 175.7587,79.9019 C175.4877,79.9019 175.2077,79.9839 174.9187,80.1499 C174.6287,80.3149 174.2927,80.4979 173.9097,80.6979 C173.5257,80.8989 173.0777,81.0819 172.5637,81.2469 C172.0507,81.4119 171.4397,81.4949 170.7317,81.4949 C169.2927,81.4949 168.1357,81.0579 167.2627,80.1849 C166.3887,79.3119 165.8877,77.9429 165.7577,76.0779 L176.9807,76.0779 C177.1797,76.0779 177.3457,76.0519 177.4757,75.9989 C177.6057,75.9459 177.7087,75.8569 177.7857,75.7329 C177.8627,75.6089 177.9157,75.4379 177.9457,75.2199 C177.9747,75.0019 177.9897,74.7269 177.9897,74.3969 C177.9897,73.0869 177.7947,71.9219 177.4057,70.9009 C177.0157,69.8799 176.4727,69.0189 175.7767,68.3159 C175.0807,67.6149 174.2517,67.0799 173.2897,66.7149 C172.3277,66.3489 171.2747,66.1659 170.1307,66.1659 C168.7727,66.1659 167.5547,66.4019 166.4747,66.8739 L166.4747,66.8739 Z M171.9177,69.6259 C172.4017,69.8449 172.8027,70.1429 173.1217,70.5199 C173.4407,70.8979 173.6767,71.3369 173.8297,71.8389 C173.9827,72.3409 174.0597,72.8739 174.0597,73.4409 L165.8457,73.4409 C166.0467,72.1189 166.5077,71.0989 167.2277,70.3789 C167.9467,69.6589 168.9447,69.2989 170.2187,69.2989 C170.8677,69.2989 171.4337,69.4079 171.9177,69.6259 L171.9177,69.6259 Z M185.9187,84.6099 L185.9187,71.4759 C186.5087,70.8859 187.1347,70.4199 187.7957,70.0779 C188.4557,69.7359 189.1637,69.5639 189.9197,69.5639 C190.9457,69.5639 191.7157,69.8679 192.2297,70.4759 C192.7427,71.0839 192.9997,71.9419 192.9997,73.0509 L192.9997,84.6099 L197.3717,84.6099 L197.3717,73.0509 C197.3717,72.0369 197.2387,71.1069 196.9737,70.2639 C196.7077,69.4199 196.3187,68.6939 195.8047,68.0859 C195.2917,67.4789 194.6517,67.0069 193.8847,66.6699 C193.1167,66.3339 192.2387,66.1659 191.2467,66.1659 C190.6337,66.1659 190.0667,66.2249 189.5477,66.3429 C189.0287,66.4609 188.5417,66.6319 188.0877,66.8559 C187.6327,67.0799 187.2027,67.3459 186.7947,67.6529 C186.3877,67.9599 186.0017,68.3019 185.6357,68.6789 L185.3347,67.2459 C185.1577,66.7149 184.7857,66.4489 184.2197,66.4489 L181.5467,66.4489 L181.5467,84.6099 L185.9187,84.6099 Z M201.9557,84.6099 L206.3277,84.6099 L206.3277,66.4489 L201.9557,66.4489 L201.9557,84.6099 Z M206.7527,60.0589 C206.5997,59.7169 206.3957,59.4219 206.1427,59.1739 C205.8887,58.9259 205.5907,58.7289 205.2487,58.5809 C204.9057,58.4329 204.5407,58.3599 204.1507,58.3599 C203.7727,58.3599 203.4167,58.4329 203.0797,58.5809 C202.7437,58.7289 202.4517,58.9259 202.2037,59.1739 C201.9557,59.4219 201.7577,59.7169 201.6107,60.0589 C201.4627,60.4009 201.3887,60.7669 201.3887,61.1559 C201.3887,61.5339 201.4627,61.8879 201.6107,62.2179 C201.7577,62.5489 201.9557,62.8379 202.2037,63.0859 C202.4517,63.3339 202.7437,63.5309 203.0797,63.6789 C203.4167,63.8269 203.7727,63.8999 204.1507,63.8999 C204.5407,63.8999 204.9057,63.8269 205.2487,63.6789 C205.5907,63.5309 205.8887,63.3339 206.1427,63.0859 C206.3957,62.8379 206.5997,62.5489 206.7527,62.2179 C206.9057,61.8879 206.9827,61.5339 206.9827,61.1559 C206.9827,60.7669 206.9057,60.4009 206.7527,60.0589 L206.7527,60.0589 Z M214.6737,66.5379 C213.7947,66.8089 213.0337,67.2009 212.3907,67.7149 C211.7467,68.2279 211.2457,68.8469 210.8857,69.5729 C210.5257,70.2989 210.3457,71.1099 210.3457,72.0069 C210.3457,73.1159 210.6087,74.0839 211.1337,74.9099 C211.6587,75.7359 212.3817,76.3969 213.3017,76.8929 C212.9007,77.0929 212.5527,77.3199 212.2577,77.5739 C211.9627,77.8279 211.7177,78.0959 211.5227,78.3789 C211.3287,78.6629 211.1837,78.9489 211.0897,79.2379 C210.9947,79.5269 210.9477,79.8069 210.9477,80.0789 C210.9477,80.7399 211.0837,81.2769 211.3547,81.6899 C211.6267,82.1029 211.9857,82.4329 212.4347,82.6809 C211.5137,83.0229 210.7947,83.4829 210.2757,84.0609 C209.7557,84.6389 209.4967,85.3539 209.4967,86.2029 C209.4967,86.8289 209.6617,87.4299 209.9917,88.0089 C210.3227,88.5869 210.8207,89.0969 211.4877,89.5399 C212.1547,89.9819 212.9947,90.3359 214.0097,90.6019 C215.0247,90.8669 216.2227,90.9999 217.6037,90.9999 C218.9957,90.9999 220.2347,90.8199 221.3207,90.4589 C222.4067,90.0969 223.3237,89.6209 224.0727,89.0289 C224.8227,88.4369 225.3947,87.7619 225.7897,87.0049 C226.1857,86.2469 226.3827,85.4649 226.3827,84.6599 C226.3827,83.7959 226.2147,83.0889 225.8787,82.5379 C225.5427,81.9879 225.0997,81.5529 224.5507,81.2329 C224.0027,80.9129 223.3797,80.6789 222.6837,80.5319 C221.9877,80.3839 221.2737,80.2799 220.5417,80.2209 C219.8097,80.1609 219.0957,80.1319 218.3997,80.1319 C217.7037,80.1319 217.0817,80.0959 216.5327,80.0249 C215.9837,79.9529 215.5417,79.8319 215.2047,79.6589 C214.8687,79.4869 214.7007,79.2169 214.7007,78.8479 C214.7007,78.4199 214.9837,78.0339 215.5497,77.6889 C216.1987,77.8189 216.8657,77.8839 217.5507,77.8839 C218.5647,77.8839 219.5067,77.7449 220.3737,77.4679 C221.2407,77.1909 221.9907,76.7979 222.6217,76.2909 C223.2527,75.7829 223.7487,75.1669 224.1087,74.4409 C224.4687,73.7149 224.6487,72.9039 224.6487,72.0069 C224.6487,71.6299 224.6157,71.2699 224.5507,70.9269 C224.4857,70.5849 224.3947,70.2609 224.2767,69.9539 L225.9057,69.6529 C226.2477,69.5939 226.4897,69.4879 226.6307,69.3339 C226.7727,69.1809 226.8437,68.9689 226.8437,68.6969 L226.8437,67.0689 L221.6217,67.0689 C221.0547,66.7619 220.4297,66.5289 219.7457,66.3689 C219.0607,66.2099 218.3287,66.1299 217.5507,66.1299 C216.5117,66.1299 215.5527,66.2659 214.6737,66.5379 L214.6737,66.5379 Z M222.0817,86.3759 C221.9047,86.6829 221.6247,86.9479 221.2407,87.1709 C220.8577,87.3939 220.3707,87.5679 219.7807,87.6949 C219.1907,87.8209 218.4887,87.8849 217.6747,87.8849 C216.8717,87.8849 216.1927,87.8289 215.6387,87.7169 C215.0837,87.6039 214.6327,87.4479 214.2847,87.2479 C213.9367,87.0469 213.6827,86.8079 213.5237,86.5309 C213.3637,86.2529 213.2847,85.9549 213.2847,85.6369 C213.2847,85.1529 213.4347,84.7249 213.7357,84.3539 C214.0367,83.9819 214.4347,83.6599 214.9297,83.3889 C215.4737,83.5189 216.0367,83.5839 216.6207,83.5839 L218.3207,83.5839 C218.8687,83.5839 219.3887,83.6139 219.8777,83.6739 C220.3677,83.7339 220.7957,83.8269 221.1617,83.9539 C221.5267,84.0809 221.8167,84.2579 222.0287,84.4869 C222.2407,84.7159 222.3477,85.0109 222.3477,85.3729 C222.3477,85.7339 222.2587,86.0679 222.0817,86.3759 L222.0817,86.3759 Z M216.1427,74.8659 C215.7357,74.7179 215.3997,74.5119 215.1337,74.2459 C214.8687,73.9809 214.6677,73.6649 214.5327,73.2989 C214.3967,72.9339 214.3287,72.5379 214.3287,72.1129 C214.3287,71.2169 214.5957,70.5059 215.1337,69.9799 C215.6707,69.4549 216.4767,69.1929 217.5507,69.1929 C218.6237,69.1929 219.4297,69.4549 219.9667,69.9799 C220.5037,70.5059 220.7717,71.2169 220.7717,72.1129 C220.7717,72.5499 220.7037,72.9509 220.5687,73.3169 C220.4327,73.6829 220.2317,73.9959 219.9667,74.2549 C219.7007,74.5149 219.3677,74.7179 218.9667,74.8659 C218.5647,75.0139 218.0927,75.0869 217.5507,75.0869 C217.0197,75.0869 216.5507,75.0139 216.1427,74.8659 L216.1427,74.8659 Z M229.8697,84.6099 L234.2417,84.6099 L234.2417,66.4489 L229.8697,66.4489 L229.8697,84.6099 Z M234.6667,60.0589 C234.5127,59.7169 234.3097,59.4219 234.0547,59.1739 C233.8017,58.9259 233.5047,58.7289 233.1617,58.5809 C232.8197,58.4329 232.4537,58.3599 232.0647,58.3599 C231.6867,58.3599 231.3297,58.4329 230.9937,58.5809 C230.6577,58.7289 230.3657,58.9259 230.1177,59.1739 C229.8697,59.4219 229.6717,59.7169 229.5247,60.0589 C229.3767,60.4009 229.3037,60.7669 229.3037,61.1559 C229.3037,61.5339 229.3767,61.8879 229.5247,62.2179 C229.6717,62.5489 229.8697,62.8379 230.1177,63.0859 C230.3657,63.3339 230.6577,63.5309 230.9937,63.6789 C231.3297,63.8269 231.6867,63.8999 232.0647,63.8999 C232.4537,63.8999 232.8197,63.8269 233.1617,63.6789 C233.5047,63.5309 233.8017,63.3339 234.0547,63.0859 C234.3097,62.8379 234.5127,62.5489 234.6667,62.2179 C234.8197,61.8879 234.8967,61.5339 234.8967,61.1559 C234.8967,60.7669 234.8197,60.4009 234.6667,60.0589 L234.6667,60.0589 Z M243.5527,84.6099 L243.5527,71.4759 C244.1427,70.8859 244.7677,70.4199 245.4287,70.0779 C246.0897,69.7359 246.7977,69.5639 247.5527,69.5639 C248.5797,69.5639 249.3497,69.8679 249.8627,70.4759 C250.3757,71.0839 250.6327,71.9419 250.6327,73.0509 L250.6327,84.6099 L255.0047,84.6099 L255.0047,73.0509 C255.0047,72.0369 254.8717,71.1069 254.6067,70.2639 C254.3407,69.4199 253.9517,68.6939 253.4387,68.0859 C252.9247,67.4789 252.2847,67.0069 251.5177,66.6699 C250.7507,66.3339 249.8717,66.1659 248.8807,66.1659 C248.2667,66.1659 247.7007,66.2249 247.1797,66.3429 C246.6617,66.4609 246.1747,66.6319 245.7207,66.8559 C245.2667,67.0799 244.8357,67.3459 244.4287,67.6529 C244.0217,67.9599 243.6347,68.3019 243.2697,68.6789 L242.9687,67.2459 C242.7917,66.7149 242.4197,66.4489 241.8527,66.4489 L239.1797,66.4489 L239.1797,84.6099 L243.5527,84.6099 Z M262.7137,66.5379 C261.8347,66.8089 261.0737,67.2009 260.4287,67.7149 C259.7867,68.2279 259.2857,68.8469 258.9257,69.5729 C258.5657,70.2989 258.3857,71.1099 258.3857,72.0069 C258.3857,73.1159 258.6477,74.0839 259.1737,74.9099 C259.6987,75.7359 260.4217,76.3969 261.3417,76.8929 C260.9407,77.0929 260.5927,77.3199 260.2977,77.5739 C260.0027,77.8279 259.7577,78.0959 259.5627,78.3789 C259.3677,78.6629 259.2237,78.9489 259.1287,79.2379 C259.0347,79.5269 258.9877,79.8069 258.9877,80.0789 C258.9877,80.7399 259.1227,81.2769 259.3947,81.6899 C259.6657,82.1029 260.0257,82.4329 260.4747,82.6809 C259.5537,83.0229 258.8337,83.4829 258.3147,84.0609 C257.7957,84.6389 257.5357,85.3539 257.5357,86.2029 C257.5357,86.8289 257.7007,87.4299 258.0317,88.0089 C258.3617,88.5869 258.8607,89.0969 259.5277,89.5399 C260.1937,89.9819 261.0347,90.3359 262.0497,90.6019 C263.0647,90.8669 264.2617,90.9999 265.6427,90.9999 C267.0357,90.9999 268.2747,90.8199 269.3607,90.4589 C270.4457,90.0969 271.3637,89.6209 272.1127,89.0289 C272.8617,88.4369 273.4347,87.7619 273.8297,87.0049 C274.2247,86.2469 274.4227,85.4649 274.4227,84.6599 C274.4227,83.7959 274.2547,83.0889 273.9187,82.5379 C273.5817,81.9879 273.1387,81.5529 272.5907,81.2329 C272.0417,80.9129 271.4197,80.6789 270.7237,80.5319 C270.0267,80.3839 269.3127,80.2799 268.5817,80.2209 C267.8497,80.1609 267.1357,80.1319 266.4397,80.1319 C265.7437,80.1319 265.1207,80.0959 264.5727,80.0249 C264.0237,79.9529 263.5807,79.8319 263.2447,79.6589 C262.9087,79.4869 262.7397,79.2169 262.7397,78.8479 C262.7397,78.4199 263.0237,78.0339 263.5897,77.6889 C264.2387,77.8189 264.9057,77.8839 265.5897,77.8839 C266.6047,77.8839 267.5457,77.7449 268.4137,77.4679 C269.2807,77.1909 270.0297,76.7979 270.6617,76.2909 C271.2927,75.7829 271.7877,75.1669 272.1477,74.4409 C272.5077,73.7149 272.6877,72.9039 272.6877,72.0069 C272.6877,71.6299 272.6557,71.2699 272.5907,70.9269 C272.5257,70.5849 272.4337,70.2609 272.3167,69.9539 L273.9447,69.6529 C274.2867,69.5939 274.5287,69.4879 274.6707,69.3339 C274.8117,69.1809 274.8827,68.9689 274.8827,68.6969 L274.8827,67.0689 L269.6607,67.0689 C269.0947,66.7619 268.4687,66.5289 267.7847,66.3689 C267.1007,66.2099 266.3687,66.1299 265.5897,66.1299 C264.5517,66.1299 263.5927,66.2659 262.7137,66.5379 L262.7137,66.5379 Z M270.1217,86.3759 C269.9447,86.6829 269.6637,86.9479 269.2807,87.1709 C268.8967,87.3939 268.4107,87.5679 267.8207,87.6949 C267.2297,87.8209 266.5277,87.8849 265.7137,87.8849 C264.9117,87.8849 264.2327,87.8289 263.6787,87.7169 C263.1237,87.6039 262.6717,87.4479 262.3237,87.2479 C261.9757,87.0469 261.7227,86.8079 261.5627,86.5309 C261.4037,86.2529 261.3237,85.9549 261.3237,85.6369 C261.3237,85.1529 261.4747,84.7249 261.7757,84.3539 C262.0767,83.9819 262.4747,83.6599 262.9707,83.3889 C263.5117,83.5189 264.0767,83.5839 264.6607,83.5839 L266.3597,83.5839 C266.9087,83.5839 267.4277,83.6139 267.9177,83.6739 C268.4077,83.7339 268.8347,83.8269 269.2007,83.9539 C269.5667,84.0809 269.8557,84.2579 270.0687,84.4869 C270.2807,84.7159 270.3867,85.0109 270.3867,85.3729 C270.3867,85.7339 270.2987,86.0679 270.1217,86.3759 L270.1217,86.3759 Z M264.1827,74.8659 C263.7757,74.7179 263.4397,74.5119 263.1737,74.2459 C262.9087,73.9809 262.7077,73.6649 262.5717,73.2989 C262.4357,72.9339 262.3687,72.5379 262.3687,72.1129 C262.3687,71.2169 262.6367,70.5059 263.1737,69.9799 C263.7107,69.4549 264.5157,69.1929 265.5897,69.1929 C266.6637,69.1929 267.4687,69.4549 268.0057,69.9799 C268.5427,70.5059 268.8117,71.2169 268.8117,72.1129 C268.8117,72.5499 268.7437,72.9509 268.6077,73.3169 C268.4727,73.6829 268.2717,73.9959 268.0057,74.2549 C267.7407,74.5149 267.4067,74.7179 267.0057,74.8659 C266.6047,75.0139 266.1327,75.0869 265.5897,75.0869 C265.0587,75.0869 264.5897,75.0139 264.1827,74.8659 L264.1827,74.8659 Z" id="Fill-1" fill="#000000"></path>
                        <mask id="mask-2" fill="white">
                            <use xlink:href="#path-1"></use>
                        </mask>
                        <g id="Clip-4"></g>
                        <path d="M34.595,84.61 L38.967,84.61 L38.967,58.306 L34.595,58.306 L34.595,84.61 Z M60.244,66.449 L56.739,66.449 C56.468,66.449 56.223,66.526 56.005,66.679 C55.786,66.833 55.63,67.027 55.536,67.263 L51.889,76.662 C51.759,76.993 51.638,77.317 51.526,77.636 C51.414,77.955 51.311,78.285 51.217,78.627 C51.146,78.297 51.063,77.967 50.969,77.636 C50.874,77.306 50.762,76.987 50.632,76.68 L46.756,67.263 C46.661,67.051 46.52,66.862 46.331,66.697 C46.142,66.532 45.871,66.449 45.517,66.449 L41.693,66.449 L49.039,83.265 L45.641,90.54 L48.898,90.54 C49.323,90.54 49.638,90.46 49.845,90.301 C50.051,90.142 50.219,89.909 50.349,89.602 L60.244,66.449 Z M67.165,84.61 L67.165,71.317 C67.637,70.774 68.147,70.346 68.696,70.033 C69.245,69.721 69.832,69.564 70.457,69.564 C71.413,69.564 72.136,69.842 72.626,70.396 C73.115,70.951 73.36,71.836 73.36,73.051 L73.36,84.61 L77.75,84.61 L77.75,73.051 C77.75,72.485 77.832,71.984 77.998,71.547 C78.163,71.11 78.39,70.748 78.679,70.458 C78.968,70.169 79.305,69.948 79.688,69.794 C80.072,69.641 80.488,69.564 80.936,69.564 C81.916,69.564 82.659,69.856 83.167,70.441 C83.674,71.025 83.928,71.895 83.928,73.051 L83.928,84.61 L88.3,84.61 L88.3,73.051 C88.3,71.954 88.161,70.98 87.884,70.131 C87.606,69.281 87.202,68.561 86.671,67.971 C86.14,67.381 85.485,66.933 84.707,66.626 C83.928,66.319 83.037,66.166 82.034,66.166 C81.455,66.166 80.88,66.231 80.308,66.361 C79.735,66.491 79.195,66.691 78.688,66.962 C78.181,67.234 77.715,67.585 77.29,68.016 C76.865,68.446 76.511,68.963 76.228,69.564 C75.862,68.538 75.31,67.715 74.573,67.095 C73.835,66.476 72.894,66.166 71.749,66.166 C71.206,66.166 70.708,66.228 70.254,66.352 C69.799,66.476 69.374,66.644 68.979,66.856 C68.584,67.069 68.212,67.322 67.864,67.617 C67.516,67.912 67.183,68.237 66.864,68.591 L66.581,67.246 C66.404,66.715 66.032,66.449 65.466,66.449 L62.793,66.449 L62.793,84.61 L67.165,84.61 Z M96.451,66.874 C95.371,67.346 94.457,67.986 93.707,68.794 C92.958,69.603 92.382,70.553 91.981,71.644 C91.58,72.736 91.38,73.901 91.38,75.14 C91.38,76.733 91.61,78.135 92.07,79.344 C92.53,80.554 93.161,81.569 93.964,82.389 C94.766,83.209 95.71,83.829 96.796,84.247 C97.882,84.666 99.056,84.876 100.319,84.876 C100.956,84.876 101.613,84.828 102.292,84.734 C102.971,84.639 103.638,84.477 104.292,84.247 C104.947,84.017 105.576,83.71 106.178,83.327 C106.779,82.944 107.322,82.468 107.806,81.902 L106.532,80.309 C106.437,80.179 106.325,80.079 106.195,80.008 C106.065,79.937 105.912,79.902 105.735,79.902 C105.463,79.902 105.183,79.984 104.894,80.15 C104.605,80.315 104.269,80.498 103.885,80.698 C103.502,80.899 103.053,81.082 102.54,81.247 C102.027,81.412 101.416,81.495 100.708,81.495 C99.268,81.495 98.112,81.058 97.239,80.185 C96.365,79.312 95.864,77.943 95.734,76.078 L106.956,76.078 C107.157,76.078 107.322,76.052 107.452,75.999 C107.582,75.946 107.685,75.857 107.762,75.733 C107.838,75.609 107.892,75.438 107.921,75.22 C107.95,75.002 107.965,74.727 107.965,74.397 C107.965,73.087 107.771,71.922 107.381,70.901 C106.992,69.88 106.449,69.019 105.753,68.316 C105.056,67.615 104.227,67.08 103.266,66.715 C102.304,66.349 101.251,66.166 100.106,66.166 C98.749,66.166 97.531,66.402 96.451,66.874 L96.451,66.874 Z M101.894,69.626 C102.378,69.845 102.779,70.143 103.098,70.52 C103.416,70.898 103.652,71.337 103.806,71.839 C103.959,72.341 104.036,72.874 104.036,73.441 L95.823,73.441 C96.023,72.119 96.483,71.099 97.203,70.379 C97.923,69.659 98.92,69.299 100.195,69.299 C100.844,69.299 101.41,69.408 101.894,69.626 L101.894,69.626 Z" id="Fill-3" fill="#95C11F" mask="url(#mask-2)"></path>
                        <path d="M47.7036,33.1423 C44.2356,36.6103 38.6126,36.6103 35.1436,33.1423 C31.6756,29.6733 31.6756,24.0513 35.1436,20.5833 C38.6126,17.1143 44.2346,17.1133 47.7036,20.5823 C51.1716,24.0503 51.1716,29.6743 47.7036,33.1423" id="Fill-5" fill="#000000" mask="url(#mask-2)"></path>
                    </g>
                    <g id="Group-9" transform="translate(0.000000, 39.353600)">
                        <mask id="mask-4" fill="white">
                            <use xlink:href="#path-3"></use>
                        </mask>
                        <g id="Clip-8"></g>
                        <path d="M46.529,0.611 C39.258,0.613 31.987,0.606 24.715,0.606 L24.715,0.606 C21.342,0.607 17.968,0.606 14.594,0.606 L14.594,0.606 L14.593,0.606 C6.864,0.606 0.594,6.824 0.498,14.533 L0.498,14.533 L0.49,14.533 C0.49,14.564 0.494,14.593 0.494,14.624 L0.494,14.624 C0.494,14.653 0.49,14.68 0.49,14.71 L0.49,14.71 L0.498,14.71 C0.595,22.416 6.863,28.636 14.593,28.636 L14.593,28.636 C22.382,28.636 28.697,22.32 28.696,14.532 L28.696,14.532 L17.501,14.532 C17.501,16.139 16.2,17.441 14.594,17.441 L14.594,17.441 C13.016,17.441 11.741,16.186 11.692,14.622 L11.692,14.622 C11.74,13.057 13.015,11.801 14.593,11.801 L14.593,11.801 C21.024,11.801 27.455,11.801 33.886,11.8 L33.886,11.8 C36.478,11.834 39.074,11.799 41.666,11.798 L41.666,11.798 C42.363,11.798 43.085,11.825 43.813,11.853 L43.813,11.853 C45.64,11.922 47.526,11.989 49.247,11.623 L49.247,11.623 C50.114,11.44 50.761,10.735 51.278,9.835 L51.278,9.835 L56.585,0.6 L56.585,0.6 C53.232,0.606 49.881,0.61 46.529,0.611" id="Fill-7" fill="url(#linearGradient-5)" mask="url(#mask-4)"></path>
                    </g>
                    <g id="Group-12" transform="translate(5.000000, 1.353600)">
                        <mask id="mask-7" fill="white">
                            <use xlink:href="#path-6"></use>
                        </mask>
                        <g id="Clip-11"></g>
                        <path d="M14.275,5.363 C13.375,5.88 12.671,6.527 12.486,7.394 L12.486,7.394 C12.269,8.417 12.316,9.476 12.316,10.516 L12.316,10.516 C12.328,18.464 12.388,26.413 12.423,34.361 L12.423,34.361 C12.449,40.303 12.474,46.246 12.5,52.19 L12.5,52.19 C12.501,52.305 12.501,52.421 12.501,52.536 L12.501,52.536 C12.534,54.46 12.303,56.357 11.605,58.17 L11.605,58.17 C11.099,59.484 10.273,60.718 9.077,61.462 L9.077,61.462 C8.605,61.755 8.086,61.966 7.563,62.157 L7.563,62.157 C5.575,62.882 3.866,63.002 1.788,63.038 L1.788,63.038 C1.788,63.038 0.221,63.065 0.22,63.065 L0.22,63.065 C0.294,63.064 0.475,63.252 0.531,63.292 L0.531,63.292 C0.741,63.447 0.951,63.601 1.158,63.76 L1.158,63.76 C1.612,64.113 2.085,64.441 2.579,64.731 L2.579,64.731 C5.215,66.279 8.387,66.87 11.41,66.483 L11.41,66.483 C14.345,66.107 17.029,64.81 19.192,62.798 L19.192,62.798 C20.016,62.032 20.753,61.174 21.377,60.239 L21.377,60.239 C22.21,58.99 22.815,57.597 23.197,56.147 L23.197,56.147 C23.491,55.03 23.584,53.923 23.672,52.78 L23.672,52.78 C23.673,52.765 23.684,52.532 23.697,52.532 L23.697,52.532 C23.675,47.722 23.655,42.913 23.634,38.103 L23.634,38.103 C23.601,30.443 23.569,22.781 23.535,15.121 L23.535,15.121 C23.516,10.099 23.511,5.078 23.511,0.056 L23.511,0.056 L14.275,5.363 Z" id="Fill-10" fill="url(#linearGradient-8)" mask="url(#mask-7)"></path>
                    </g>
                </g>
            </g>
        </g>
    </g>
</svg>